<svg xmlns="http://www.w3.org/2000/svg"  viewBox="0 0 50 50" width="50px" height="50px"><path d="M 25 2 C 12.317 2 2 12.317 2 25 C 2 37.683 12.317 48 25 48 C 37.683 48 48 37.683 48 25 C 48 12.317 37.683 2 25 2 z M 26.300781 12.009766 C 35.827781 12.009766 39.291969 18.146531 39.292969 23.269531 C 39.292969 28.539531 34.961781 33.662109 26.300781 33.662109 C 23.332781 33.662109 20.992094 32.832375 19.371094 31.984375 L 19.371094 36.259766 L 20.238281 36.259766 L 20.238281 37.992188 L 15.041016 37.992188 L 15.041016 36.259766 L 15.90625 36.259766 L 15.90625 17.945312 C 14.85625 18.643313 13.308594 20.669922 13.308594 20.669922 L 13.308594 22.070312 L 12.443359 22.070312 L 10.710938 18.939453 C 10.710938 18.939453 16.773781 12.009766 26.300781 12.009766 z M 26.300781 14.164062 C 23.557781 14.164062 21.249094 14.824656 19.371094 15.722656 L 19.371094 29.779297 C 20.524094 30.293297 22.829781 31.064453 26.300781 31.064453 C 31.939781 31.064453 34.962891 26.733531 34.962891 23.269531 C 34.962891 18.920531 32.050781 14.164062 26.300781 14.164062 z"/></svg>